#define back_width 26
#define back_height 26
static unsigned char back_bits[] = {
   0x00, 0x00, 0x00, 0x00, 0x00, 0x00, 0x00, 0x00, 0x00, 0x00, 0x00, 0x00,
   0x00, 0x00, 0x00, 0x00, 0x00, 0x00, 0x00, 0x00, 0x00, 0x00, 0x00, 0x00,
   0x00, 0x0c, 0x00, 0x00, 0x00, 0x0c, 0x06, 0x00, 0x00, 0x0c, 0x07, 0x00,
   0x00, 0x8c, 0x07, 0x00, 0x00, 0xcc, 0x07, 0x00, 0x00, 0xec, 0x07, 0x00,
   0x00, 0xfc, 0x07, 0x00, 0x00, 0xfc, 0x07, 0x00, 0x00, 0xec, 0x07, 0x00,
   0x00, 0xcc, 0x07, 0x00, 0x00, 0x8c, 0x07, 0x00, 0x00, 0x0c, 0x07, 0x00,
   0x00, 0x0c, 0x06, 0x00, 0x00, 0x0c, 0x00, 0x00, 0x00, 0x00, 0x00, 0x00,
   0x00, 0x00, 0x00, 0x00, 0x00, 0x00, 0x00, 0x00, 0x00, 0x00, 0x00, 0x00,
   0x00, 0x00, 0x00, 0x00, 0x00, 0x00, 0x00, 0x00};
