#define pause_width 26
#define pause_height 26
static unsigned char pause_bits[] = {
   0x00, 0x00, 0x00, 0x00, 0x00, 0x00, 0x00, 0x00, 0x00, 0x00, 0x00, 0x00,
   0x00, 0x00, 0x00, 0x00, 0x00, 0x00, 0x00, 0x00, 0x00, 0x87, 0x03, 0x00,
   0x00, 0x87, 0x03, 0x00, 0x00, 0x87, 0x03, 0x00, 0x00, 0x87, 0x03, 0x00,
   0x00, 0x87, 0x03, 0x00, 0x00, 0x87, 0x03, 0x00, 0x00, 0x87, 0x03, 0x00,
   0x00, 0x87, 0x03, 0x00, 0x00, 0x87, 0x03, 0x00, 0x00, 0x87, 0x03, 0x00,
   0x00, 0x87, 0x03, 0x00, 0x00, 0x87, 0x03, 0x00, 0x00, 0x87, 0x03, 0x00,
   0x00, 0x87, 0x03, 0x00, 0x00, 0x87, 0x03, 0x00, 0x00, 0x87, 0x03, 0x00,
   0x00, 0x00, 0x00, 0x00, 0x00, 0x00, 0x00, 0x00, 0x00, 0x00, 0x00, 0x00,
   0x00, 0x00, 0x00, 0x00, 0x00, 0x00, 0x00, 0x00};
