#define cal_width 26
#define cal_height 26
static unsigned char cal_bits[] = {
   0x00, 0x00, 0x00, 0x00, 0x00, 0x00, 0x00, 0x00, 0x00, 0x03, 0x03, 0x00,
   0x00, 0x03, 0x03, 0x00, 0xf8, 0xff, 0x7f, 0x00, 0x0c, 0x03, 0xc3, 0x00,
   0x84, 0x84, 0x84, 0x00, 0x84, 0x87, 0x87, 0x00, 0x0c, 0x00, 0xc0, 0x00,
   0xf8, 0xff, 0x7f, 0x00, 0x18, 0x00, 0x60, 0x00, 0x08, 0x00, 0x40, 0x00,
   0x88, 0x31, 0x46, 0x00, 0x88, 0x31, 0x46, 0x00, 0x08, 0x00, 0x40, 0x00,
   0x88, 0x31, 0x46, 0x00, 0x88, 0x31, 0x46, 0x00, 0x08, 0x00, 0x40, 0x00,
   0x88, 0x31, 0x46, 0x00, 0x88, 0x31, 0x46, 0x00, 0x08, 0x00, 0x40, 0x00,
   0x18, 0x00, 0x60, 0x00, 0xf0, 0xff, 0x3f, 0x00, 0x00, 0x00, 0x00, 0x00,
   0x00, 0x00, 0x00, 0x00, 0x00, 0x00, 0x00, 0x00};
